{"asset":{"version":"2.0","generator":"Blockbench 4.8.3 glTF exporter"},"scenes":[{"nodes":[10],"name":"blockbench_export"}],"scene":0,"nodes":[{"name":"body","mesh":0},{"name":"left_leg","mesh":1},{"translation":[0.1875,0,0],"name":"left_leg","children":[1]},{"name":"left_arm","mesh":2},{"translation":[0.34375,0.25,0],"name":"left_arm","children":[3]},{"name":"right_leg","mesh":3},{"translation":[-0.1875,0,0],"name":"right_leg","children":[5]},{"name":"right_arm","mesh":4},{"translation":[-0.34375,0.25,0],"name":"right_arm","children":[7]},{"translation":[0,0.1875,0],"name":"root","children":[0,2,4,6,8]},{"children":[9]}],"bufferViews":[{"buffer":0,"byteOffset":0,"byteLength":288,"target":34962,"byteStride":12},{"buffer":0,"byteOffset":288,"byteLength":288,"target":34962,"byteStride":12},{"buffer":0,"byteOffset":576,"byteLength":192,"target":34962,"byteStride":8},{"buffer":0,"byteOffset":768,"byteLength":72,"target":34963},{"buffer":0,"byteOffset":840,"byteLength":288,"target":34962,"byteStride":12},{"buffer":0,"byteOffset":1128,"byteLength":288,"target":34962,"byteStride":12},{"buffer":0,"byteOffset":1416,"byteLength":192,"target":34962,"byteStride":8},{"buffer":0,"byteOffset":1608,"byteLength":72,"target":34963},{"buffer":0,"byteOffset":1680,"byteLength":288,"target":34962,"byteStride":12},{"buffer":0,"byteOffset":1968,"byteLength":288,"target":34962,"byteStride":12},{"buffer":0,"byteOffset":2256,"byteLength":192,"target":34962,"byteStride":8},{"buffer":0,"byteOffset":2448,"byteLength":72,"target":34963},{"buffer":0,"byteOffset":2520,"byteLength":288,"target":34962,"byteStride":12},{"buffer":0,"byteOffset":2808,"byteLength":288,"target":34962,"byteStride":12},{"buffer":0,"byteOffset":3096,"byteLength":192,"target":34962,"byteStride":8},{"buffer":0,"byteOffset":3288,"byteLength":72,"target":34963},{"buffer":0,"byteOffset":3360,"byteLength":288,"target":34962,"byteStride":12},{"buffer":0,"byteOffset":3648,"byteLength":288,"target":34962,"byteStride":12},{"buffer":0,"byteOffset":3936,"byteLength":192,"target":34962,"byteStride":8},{"buffer":0,"byteOffset":4128,"byteLength":72,"target":34963},{"buffer":0,"byteOffset":4200,"byteLength":12},{"buffer":0,"byteOffset":4212,"byteLength":48},{"buffer":0,"byteOffset":4260,"byteLength":12},{"buffer":0,"byteOffset":4272,"byteLength":48},{"buffer":0,"byteOffset":4320,"byteLength":20},{"buffer":0,"byteOffset":4340,"byteLength":60},{"buffer":0,"byteOffset":4400,"byteLength":12},{"buffer":0,"byteOffset":4412,"byteLength":48},{"buffer":0,"byteOffset":4460,"byteLength":12},{"buffer":0,"byteOffset":4472,"byteLength":48},{"buffer":0,"byteOffset":4520,"byteLength":12},{"buffer":0,"byteOffset":4532,"byteLength":48},{"buffer":0,"byteOffset":4580,"byteLength":4},{"buffer":0,"byteOffset":4584,"byteLength":16},{"buffer":0,"byteOffset":4600,"byteLength":4},{"buffer":0,"byteOffset":4604,"byteLength":16},{"buffer":0,"byteOffset":4620,"byteLength":4},{"buffer":0,"byteOffset":4624,"byteLength":16},{"buffer":0,"byteOffset":4640,"byteLength":4},{"buffer":0,"byteOffset":4644,"byteLength":16},{"buffer":0,"byteOffset":4660,"byteLength":4},{"buffer":0,"byteOffset":4664,"byteLength":16},{"buffer":0,"byteOffset":4680,"byteLength":256},{"buffer":0,"byteOffset":4936,"byteLength":1024},{"buffer":0,"byteOffset":5960,"byteLength":256},{"buffer":0,"byteOffset":6216,"byteLength":1024},{"buffer":0,"byteOffset":7240,"byteLength":256},{"buffer":0,"byteOffset":7496,"byteLength":1024},{"buffer":0,"byteOffset":8520,"byteLength":256},{"buffer":0,"byteOffset":8776,"byteLength":1024},{"buffer":0,"byteOffset":9800,"byteLength":256},{"buffer":0,"byteOffset":10056,"byteLength":1024}],"buffers":[{"byteLength":11080,"uri":"data:application/octet-stream;base64,"}],"accessors":[{"bufferView":0,"componentType":5126,"count":24,"max":[0.3125,0.625,0.3125],"min":[-0.3125,0,-0.3125],"type":"VEC3"},{"bufferView":1,"componentType":5126,"count":24,"max":[1,1,1],"min":[-1,-1,-1],"type":"VEC3"},{"bufferView":2,"componentType":5126,"count":24,"max":[0.9375,0.9375],"min":[0,0],"type":"VEC2"},{"bufferView":3,"componentType":5123,"count":36,"max":[23],"min":[0],"type":"SCALAR"},{"bufferView":4,"componentType":5126,"count":24,"max":[0.0625,0,0.0625],"min":[-0.0625,-0.1875,-0.0625],"type":"VEC3"},{"bufferView":5,"componentType":5126,"count":24,"max":[1,1,1],"min":[-1,-1,-1],"type":"VEC3"},{"bufferView":6,"componentType":5126,"count":24,"max":[0.75,0.71875],"min":[0.5,0.375],"type":"VEC2"},{"bufferView":7,"componentType":5123,"count":36,"max":[23],"min":[0],"type":"SCALAR"},{"bufferView":8,"componentType":5126,"count":24,"max":[0.09375,0.0625,0.0625],"min":[-0.03125,-0.1875,-0.0625],"type":"VEC3"},{"bufferView":9,"componentType":5126,"count":24,"max":[1,1,1],"min":[-1,-1,-1],"type":"VEC3"},{"bufferView":10,"componentType":5126,"count":24,"max":[0.75,0.75],"min":[0.3125,0.3125],"type":"VEC2"},{"bufferView":11,"componentType":5123,"count":36,"max":[23],"min":[0],"type":"SCALAR"},{"bufferView":12,"componentType":5126,"count":24,"max":[0.0625,0,0.0625],"min":[-0.0625,-0.1875,-0.0625],"type":"VEC3"},{"bufferView":13,"componentType":5126,"count":24,"max":[1,1,1],"min":[-1,-1,-1],"type":"VEC3"},{"bufferView":14,"componentType":5126,"count":24,"max":[0.75,0.71875],"min":[0.5,0.375],"type":"VEC2"},{"bufferView":15,"componentType":5123,"count":36,"max":[23],"min":[0],"type":"SCALAR"},{"bufferView":16,"componentType":5126,"count":24,"max":[0.03125,0.0625,0.0625],"min":[-0.09375,-0.1875,-0.0625],"type":"VEC3"},{"bufferView":17,"componentType":5126,"count":24,"max":[1,1,1],"min":[-1,-1,-1],"type":"VEC3"},{"bufferView":18,"componentType":5126,"count":24,"max":[0.75,0.75],"min":[0.3125,0.3125],"type":"VEC2"},{"bufferView":19,"componentType":5123,"count":36,"max":[23],"min":[0],"type":"SCALAR"},{"bufferView":20,"componentType":5126,"count":3,"max":[0.5],"min":[0],"type":"SCALAR"},{"bufferView":21,"componentType":5126,"count":3,"max":[0.5735764503479004,0,0,0.8191520571708679],"min":[-0.5735764503479004,0,0,0.8191520571708679],"type":"VEC4"},{"bufferView":22,"componentType":5126,"count":3,"max":[0.5],"min":[0],"type":"SCALAR"},{"bufferView":23,"componentType":5126,"count":3,"max":[0.2164396196603775,0,0,0.9762960076332092],"min":[0.2164396196603775,0,0,0.9762960076332092],"type":"VEC4"},{"bufferView":24,"componentType":5126,"count":5,"max":[0.5],"min":[0],"type":"SCALAR"},{"bufferView":25,"componentType":5126,"count":5,"max":[0,0.1875,0],"min":[0,0.125,0],"type":"VEC3"},{"bufferView":26,"componentType":5126,"count":3,"max":[0.5],"min":[0],"type":"SCALAR"},{"bufferView":27,"componentType":5126,"count":3,"max":[0.5735764503479004,0,0,0.8191520571708679],"min":[-0.5735764503479004,0,0,0.8191520571708679],"type":"VEC4"},{"bufferView":28,"componentType":5126,"count":3,"max":[0.5],"min":[0],"type":"SCALAR"},{"bufferView":29,"componentType":5126,"count":3,"max":[0.5,0,0,0.8660253882408142],"min":[-0.5,0,0,0.8660253882408142],"type":"VEC4"},{"bufferView":30,"componentType":5126,"count":3,"max":[0.5],"min":[0],"type":"SCALAR"},{"bufferView":31,"componentType":5126,"count":3,"max":[0.5,0,0,0.8660253882408142],"min":[-0.5,0,0,0.8660253882408142],"type":"VEC4"},{"bufferView":32,"componentType":5126,"count":1,"max":[0],"min":[0],"type":"SCALAR"},{"bufferView":33,"componentType":5126,"count":1,"max":[0.10886687785387039,0,0,0.9940563440322876],"min":[0.10886687785387039,0,0,0.9940563440322876],"type":"VEC4"},{"bufferView":34,"componentType":5126,"count":1,"max":[0],"min":[0],"type":"SCALAR"},{"bufferView":35,"componentType":5126,"count":1,"max":[-0.5735764503479004,0,0,0.8191520571708679],"min":[-0.5735764503479004,0,0,0.8191520571708679],"type":"VEC4"},{"bufferView":36,"componentType":5126,"count":1,"max":[0],"min":[0],"type":"SCALAR"},{"bufferView":37,"componentType":5126,"count":1,"max":[-0.7071067690849304,0,0,0.7071067690849304],"min":[-0.7071067690849304,0,0,0.7071067690849304],"type":"VEC4"},{"bufferView":38,"componentType":5126,"count":1,"max":[0],"min":[0],"type":"SCALAR"},{"bufferView":39,"componentType":5126,"count":1,"max":[-0.5735764503479004,0,0,0.8191520571708679],"min":[-0.5735764503479004,0,0,0.8191520571708679],"type":"VEC4"},{"bufferView":40,"componentType":5126,"count":1,"max":[0],"min":[0],"type":"SCALAR"},{"bufferView":41,"componentType":5126,"count":1,"max":[-0.7071067690849304,0,0,0.7071067690849304],"min":[-0.7071067690849304,0,0,0.7071067690849304],"type":"VEC4"},{"bufferView":42,"componentType":5126,"count":64,"max":[4],"min":[0],"type":"SCALAR"},{"bufferView":43,"componentType":5126,"count":64,"max":[0.08715574443340302,0,0,1],"min":[0,0,0,0.9961947202682495],"type":"VEC4"},{"bufferView":44,"componentType":5126,"count":64,"max":[4],"min":[0],"type":"SCALAR"},{"bufferView":45,"componentType":5126,"count":64,"max":[0,0,0,1],"min":[-0.08715574443340302,0,0,0.9961947202682495],"type":"VEC4"},{"bufferView":46,"componentType":5126,"count":64,"max":[4],"min":[0],"type":"SCALAR"},{"bufferView":47,"componentType":5126,"count":64,"max":[0,0,0,1],"min":[-0.08715574443340302,0,0,0.9961947202682495],"type":"VEC4"},{"bufferView":48,"componentType":5126,"count":64,"max":[4],"min":[0],"type":"SCALAR"},{"bufferView":49,"componentType":5126,"count":64,"max":[0,0,0,1],"min":[-0.08715574443340302,0,0,0.9961947202682495],"type":"VEC4"},{"bufferView":50,"componentType":5126,"count":64,"max":[4],"min":[0],"type":"SCALAR"},{"bufferView":51,"componentType":5126,"count":64,"max":[0,0,0,1],"min":[-0.08715574443340302,0,0,0.9961947202682495],"type":"VEC4"}],"materials":[{"pbrMetallicRoughness":{"metallicFactor":0,"roughnessFactor":1,"baseColorTexture":{"index":0}},"alphaMode":"MASK","alphaCutoff":0.05,"doubleSided":true}],"textures":[{"sampler":0,"source":0,"name":"skin.png"}],"samplers":[{"magFilter":9728,"minFilter":9728,"wrapS":33071,"wrapT":33071}],"images":[{"mimeType":"image/png","uri":"data:image/png;base64,"}],"meshes":[{"primitives":[{"mode":4,"attributes":{"POSITION":0,"NORMAL":1,"TEXCOORD_0":2},"indices":3,"material":0}]},{"primitives":[{"mode":4,"attributes":{"POSITION":4,"NORMAL":5,"TEXCOORD_0":6},"indices":7,"material":0}]},{"primitives":[{"mode":4,"attributes":{"POSITION":8,"NORMAL":9,"TEXCOORD_0":10},"indices":11,"material":0}]},{"primitives":[{"mode":4,"attributes":{"POSITION":12,"NORMAL":13,"TEXCOORD_0":14},"indices":15,"material":0}]},{"primitives":[{"mode":4,"attributes":{"POSITION":16,"NORMAL":17,"TEXCOORD_0":18},"indices":19,"material":0}]}],"animations":[{"name":"run","samplers":[{"input":20,"output":21,"interpolation":"LINEAR"},{"input":22,"output":23,"interpolation":"LINEAR"},{"input":24,"output":25,"interpolation":"LINEAR"},{"input":26,"output":27,"interpolation":"LINEAR"},{"input":28,"output":29,"interpolation":"LINEAR"},{"input":30,"output":31,"interpolation":"LINEAR"}],"channels":[{"sampler":0,"target":{"node":6,"path":"rotation"}},{"sampler":1,"target":{"node":9,"path":"rotation"}},{"sampler":2,"target":{"node":9,"path":"translation"}},{"sampler":3,"target":{"node":2,"path":"rotation"}},{"sampler":4,"target":{"node":4,"path":"rotation"}},{"sampler":5,"target":{"node":8,"path":"rotation"}}]},{"name":"jump","samplers":[{"input":32,"output":33,"interpolation":"LINEAR"},{"input":34,"output":35,"interpolation":"LINEAR"},{"input":36,"output":37,"interpolation":"LINEAR"},{"input":38,"output":39,"interpolation":"LINEAR"},{"input":40,"output":41,"interpolation":"LINEAR"}],"channels":[{"sampler":0,"target":{"node":9,"path":"rotation"}},{"sampler":1,"target":{"node":2,"path":"rotation"}},{"sampler":2,"target":{"node":4,"path":"rotation"}},{"sampler":3,"target":{"node":6,"path":"rotation"}},{"sampler":4,"target":{"node":8,"path":"rotation"}}]},{"name":"idle","samplers":[{"input":42,"output":43,"interpolation":"LINEAR"},{"input":44,"output":45,"interpolation":"LINEAR"},{"input":46,"output":47,"interpolation":"LINEAR"},{"input":48,"output":49,"interpolation":"LINEAR"},{"input":50,"output":51,"interpolation":"LINEAR"}],"channels":[{"sampler":0,"target":{"node":9,"path":"rotation"}},{"sampler":1,"target":{"node":2,"path":"rotation"}},{"sampler":2,"target":{"node":4,"path":"rotation"}},{"sampler":3,"target":{"node":6,"path":"rotation"}},{"sampler":4,"target":{"node":8,"path":"rotation"}}]}]}